<svg xmlns="http://www.w3.org/2000/svg" width="175" height="175" viewBox="0 0 175 175"><g transform="translate(-13 -13)"><rect width="175" height="175" transform="translate(13 13)" fill="#fff"/><path d="M84.844,94.375H32.185l-6.5,18.875a3.085,3.085,0,0,1-3.807,1.9L3,110.078a3.172,3.172,0,0,1-2.221-3.965C4.9,92.948,12.834,67.569,20.923,44.095,24.73,33.309,32.343,12.848,36.467,2.221a3.133,3.133,0,0,1,2.855-1.9L77.865,0a2.9,2.9,0,0,1,2.855,1.9c3.966,9.358,9.2,23.475,17.923,47.743C108,75.5,114.822,95.327,118.471,106.588a3.06,3.06,0,0,1-2.221,3.965l-21.571,5.551a3.351,3.351,0,0,1-3.807-2.22C88.493,106.429,84.844,94.375,84.844,94.375ZM40.75,69.156l35.847.158L58.2,16.972Z" transform="translate(40.346 41.917)" fill="#a1d1e0"/></g></svg>